<svg xmlns="http://www.w3.org/2000/svg" xmlns:xlink="http://www.w3.org/1999/xlink" aria-hidden="true" role="img" class="iconify iconify--logos" width="35.93" height="32" preserveAspectRatio="xMidYMid meet" viewBox="0 0 256 228">
<path d="M36.1069 0.5C36.2896 0.575476 36.4764 0.638373 36.6507 0.726428C37.5308 1.17509 37.9667 1.90469 37.9791 2.89846C37.9791 2.95297 37.9791 3.00748 37.9791 3.0578C37.9791 3.07038 37.9916 3.08715 38.0123 3.13327C39.0086 2.31981 40.0796 2.1437 41.1133 2.96974C42.1469 3.79998 42.2258 4.89438 41.6446 6.08942C42.9149 5.78751 43.9527 6.08942 44.5255 7.28865C45.1067 8.50045 44.7082 9.52777 43.6621 10.3412C44.9946 10.6264 45.746 11.3979 45.7584 12.7816C45.7667 13.3645 45.5301 13.876 45.1357 14.3037C44.7455 14.723 44.2474 14.9327 43.6372 15.0375C44.5961 15.7378 44.9448 16.6309 44.6708 17.8259C45.555 16.9705 46.5098 16.8028 47.6098 17.2976C47.203 16.0271 47.4313 14.9537 48.5729 14.2869C49.7145 13.6202 50.7523 13.9305 51.6489 14.9369C51.815 13.5951 52.5082 12.7481 53.82 12.6474C55.1318 12.5468 55.933 13.2932 56.2983 14.5805C57.0579 13.4232 58.0542 13.008 59.3162 13.4986C60.3291 13.8928 60.7234 14.765 60.6528 16.2745C61.9148 15.5784 63.0647 15.6371 63.9696 16.8489C64.5757 17.6582 64.5051 18.5178 63.8326 19.738C65.3271 19.6541 66.3524 20.2621 66.5849 21.801C66.7509 22.8996 66.1988 23.7047 65.1901 24.2414C66.6388 24.841 67.2491 25.8767 66.78 27.3946C66.506 28.2919 65.8128 28.7112 64.501 28.9125C65.4392 29.9272 65.6633 31.0468 64.8082 32.1789C64.0568 33.1727 63.019 33.2692 61.8691 32.8079C62.2884 34.1413 61.9978 35.2399 60.7691 35.8773C59.669 36.4433 58.6686 36.1205 57.8176 35.1477C57.7097 36.3259 57.1077 37.0681 55.962 37.4371C57.1493 37.7935 57.7595 38.5441 57.8716 39.7391C58.8139 38.695 59.9015 38.3889 61.0846 39.1647C62.1224 39.8439 62.3092 40.8796 61.9273 42.0705C63.2432 41.5715 64.3764 41.7644 65.0863 43.0433C65.6716 44.1 65.4059 45.0937 64.5467 45.9743C65.8792 46.0456 66.7841 46.6913 66.9792 47.9995C67.1702 49.2994 66.4894 50.1758 65.2648 50.6286C66.4728 51.5092 66.8796 52.3604 66.6098 53.3751C66.452 53.9747 66.1241 54.4444 65.6094 54.7882C65.0946 55.132 64.5217 55.1907 63.87 55.1236C64.6629 56.3061 64.7085 57.4508 63.6915 58.4278C62.8073 59.2748 61.7695 59.2329 60.6985 58.5913C60.9102 59.9038 60.52 60.9269 59.2954 61.4133C58.0667 61.8997 57.087 61.4301 56.3564 60.3147C55.9662 61.623 55.1525 62.3651 53.8159 62.2352C52.5331 62.1094 51.8731 61.2582 51.7071 59.9667C50.7398 61.015 49.6605 61.2791 48.4484 60.4992C47.5891 59.9457 47.3649 59.0777 47.6472 57.6185C47.1615 57.7988 46.6841 57.933 46.1777 57.8492C45.6712 57.7653 45.2437 57.5431 44.841 57.195C45.0444 58.3146 44.7621 59.2329 43.7825 59.9248C45.0735 60.2141 45.8705 60.9563 45.8747 62.2855C45.8747 63.6063 45.1067 64.3611 43.8074 64.6504C44.8327 65.4764 45.2146 66.4912 44.6584 67.682C44.0938 68.8854 43.0643 69.1957 41.7899 68.9274C42.3752 70.1727 42.2465 71.2839 41.1465 72.0932C40.1377 72.8353 39.0999 72.6676 38.1203 71.8541C38.1369 73.2127 37.5474 74.1646 36.2688 74.4371C35.0276 74.6971 34.0936 74.1268 33.5581 72.8857C33.0351 74.1436 32.0969 74.6342 30.8391 74.4497C30.2621 74.3658 29.7888 74.0094 29.4443 73.5188C29.1039 73.0366 28.9711 72.4957 29.0333 71.85C27.8918 72.7431 26.7834 72.8311 25.7041 71.8793C25.2931 71.5187 25.0814 71.0239 25.015 70.483C24.9444 69.9463 25.0773 69.4347 25.3595 68.9315C23.9855 69.2125 22.9062 68.8435 22.3914 67.5185C21.9556 66.3947 22.325 65.4261 23.3296 64.6672C22.0552 64.3694 21.2623 63.6524 21.2582 62.3064C21.2582 60.9563 22.0469 60.2476 23.3255 59.9331C22.4081 59.2664 22.0843 58.3817 22.3126 57.2244C21.4325 58.0295 20.4902 58.2056 19.4275 57.7234C19.8343 59.0652 19.5479 60.147 18.3316 60.7885C17.2315 61.3714 16.2394 61.0443 15.3884 60.1051C15.1767 61.4007 14.5167 62.2645 13.1924 62.361C11.8807 62.4532 11.0961 61.7152 10.71 60.4573C10.0292 61.5014 9.11598 61.9668 7.96611 61.6062C6.62528 61.1827 6.1811 60.1344 6.3596 58.7423C5.17651 59.409 4.10966 59.3629 3.18395 58.3565C2.79789 57.9372 2.63599 57.4131 2.63184 56.8302C2.62769 56.2558 2.8394 55.7736 3.1881 55.262C1.73934 55.3585 0.78872 54.7798 0.440021 53.3751C0.311334 52.851 0.415114 52.3352 0.660033 51.853C0.904953 51.375 1.28686 51.0312 1.80576 50.7628C1.69368 50.7083 1.62311 50.6706 1.55254 50.637C0.713999 50.2764 0.207555 49.66 0.0954731 48.7291C0.0871708 48.6663 0.045659 48.6117 0.020752 48.5488C0.020752 48.4859 0.020752 48.4272 0.020752 48.3643C0.045659 48.3015 0.091322 48.2427 0.0954731 48.1799C0.15359 47.2574 0.884197 46.402 1.80161 46.1839C2.01747 46.1336 2.24163 46.1085 2.49485 46.0623C1.6148 45.1231 1.38234 44.0706 2.07974 42.9846C2.81449 41.8483 3.90625 41.7015 5.1433 42.1627C4.7614 40.9845 4.9565 39.9614 5.97354 39.2779C7.13172 38.5022 8.22348 38.7747 9.19901 39.802C9.32769 38.6531 9.92546 37.9193 11.038 37.5503C10.4568 37.3952 10.0375 37.1352 9.69715 36.7369C9.35675 36.3343 9.21146 35.8521 9.14089 35.2944C8.2899 36.2463 7.29777 36.5566 6.20601 36.0031C4.9648 35.3741 4.68667 34.2755 5.07689 32.9421C3.9104 33.4159 2.87676 33.2817 2.1337 32.2712C1.29931 31.1474 1.52763 30.0405 2.45749 29.0215C2.37032 29.009 2.3205 29.0006 2.27069 28.9964C1.27026 28.9503 0.589463 28.4429 0.182648 27.533C0.132834 27.4156 0.0788684 27.3024 0.0249031 27.1891C0.0249031 26.8495 0.0249031 26.5099 0.0249031 26.1702C0.0539614 26.1157 0.0871708 26.0654 0.103775 26.0067C0.344544 25.2477 0.821929 24.7152 1.56914 24.4427C1.62726 24.4217 1.67707 24.384 1.7601 24.342C0.697394 23.7969 0.195101 22.9373 0.390207 21.8136C0.64758 20.325 1.68122 19.759 3.12168 19.826C2.33296 18.7442 2.48655 17.675 2.92658 17.0418C3.82323 15.7503 4.99386 15.6707 6.33054 16.3709C6.13128 15.5365 6.28903 14.8111 6.82038 14.2031C7.34758 13.5951 8.02837 13.3183 8.842 13.4148C9.64318 13.5112 10.216 13.9599 10.6561 14.6434C11.258 13.2261 11.9637 12.6852 13.0845 12.7313C13.5702 12.7523 14.0061 12.9158 14.3963 13.2135C14.9733 13.6496 15.2265 14.2702 15.3261 15.0082C16.1937 14.0605 17.1983 13.7251 18.3233 14.3456C19.5064 14.9956 19.7762 16.0606 19.3777 17.3898C20.4321 16.9034 21.3537 17.0796 22.2295 17.8469C21.9763 16.6519 22.3001 15.7503 23.2549 15.0627C22.0469 14.8027 21.254 14.1486 21.171 12.9158C21.0714 11.465 21.8725 10.6599 23.2507 10.3496C22.1922 9.53615 21.8061 8.50465 22.3873 7.29284C22.9602 6.10199 23.9938 5.78751 25.2724 6.10619C24.6912 4.9405 24.7535 3.86287 25.7414 3.02845C26.7834 2.14789 27.871 2.31142 28.9337 3.1794C28.9337 3.02845 28.9337 2.92362 28.9337 2.81879C28.9088 1.86276 29.5813 0.94447 30.4821 0.642566C30.5942 0.604828 30.7063 0.558704 30.8183 0.512579C31.1089 0.512579 31.3995 0.512579 31.6859 0.512579C31.744 0.541931 31.8022 0.583862 31.8644 0.600635C32.566 0.822869 33.0766 1.25895 33.363 1.95082C33.3838 2.00113 33.4211 2.04726 33.4668 2.11435C33.4958 2.06403 33.5124 2.03887 33.5207 2.01371C33.8279 1.28411 34.3427 0.789325 35.119 0.588055C35.1688 0.575476 35.2103 0.537738 35.2559 0.508386C35.5465 0.508386 35.8371 0.508386 36.1235 0.508386L36.1069 0.5ZM33.4294 14.9369C34.5461 15.1046 35.7001 13.9012 35.6752 12.681C35.6462 11.2805 34.6042 10.3999 33.4211 10.4167C32.2131 10.4335 31.221 11.4105 31.2127 12.7648C31.2044 13.8592 32.2878 15.1088 33.4336 14.9369H33.4294ZM9.97528 25.0884C9.90886 26.2499 10.9342 27.3988 12.1879 27.403C13.5494 27.4072 14.388 26.426 14.4544 25.2352C14.5208 23.9898 13.4664 22.9206 12.2252 22.8702C11.1293 22.8241 9.8881 23.8514 9.97528 25.0884ZM57.0206 49.9074C57.087 48.6663 55.9869 47.5928 54.837 47.5802C53.4049 47.5635 52.558 48.6201 52.5456 49.7942C52.5331 51.0689 53.5087 52.0752 54.8204 52.113C55.908 52.1465 57.0911 51.1276 57.0247 49.9074H57.0206ZM54.7789 22.7864C53.3883 22.8367 52.4999 23.7843 52.4709 25.0423C52.446 26.2331 53.3426 27.2562 54.6793 27.3024C55.825 27.3401 56.9375 26.317 56.9832 25.2352C57.0496 23.6208 55.8458 22.8241 54.7789 22.7864ZM35.7873 62.2687C35.7873 61.5978 35.4967 61.0485 35.0442 60.5873C34.5585 60.0967 33.9483 60.0086 33.2924 60.038C32.3418 60.0841 31.3206 61.0904 31.3289 62.2813C31.3372 63.6818 32.3584 64.5707 33.554 64.5707C34.7412 64.5707 35.7499 63.6482 35.7873 62.2687ZM12.2418 52.1969C13.6325 52.134 14.5208 51.1653 14.5208 49.9158C14.5208 48.7124 13.6657 47.7018 12.2875 47.6893C11.0131 47.6725 10.0624 48.6746 10.0168 49.7774C9.94622 51.4798 11.258 52.1801 12.2418 52.201V52.1969ZM64.2976 24.1156C65.4225 24.1156 66.3441 23.1805 66.34 22.04C66.3358 20.9204 65.4018 20.0105 64.2478 20.0105C63.1851 20.0105 62.251 20.9582 62.2552 22.04C62.2552 23.1931 63.1643 24.1156 64.2976 24.1156ZM45.4097 42.9469C45.4097 44.0329 46.2275 45.0224 47.4521 45.0224C48.5812 45.0224 49.4488 44.1712 49.4862 42.9846C49.5194 41.865 48.5605 40.909 47.4646 40.9048C46.3479 40.9048 45.4097 41.8315 45.4097 42.9469ZM8.54727 17.784C9.66394 17.784 10.5938 16.8531 10.598 15.7336C10.598 14.6098 9.67639 13.6789 8.55557 13.6748C7.42645 13.6748 6.50904 14.6014 6.51319 15.7461C6.51734 16.8573 7.44306 17.784 8.54727 17.7798V17.784ZM22.1507 53.4967C23.2964 53.4967 24.1848 52.6036 24.1889 51.4589C24.1889 50.3183 23.2923 49.4 22.1673 49.3917C21.0465 49.3833 20.1124 50.3267 20.1208 51.4631C20.1249 52.5868 21.0382 53.5009 22.1507 53.5009V53.4967ZM23.8028 28.1116C23.7904 26.9585 22.8854 26.0654 21.7356 26.0738C20.623 26.0822 19.7222 27.013 19.7347 28.1326C19.7471 29.3067 20.6563 30.1788 21.8518 30.1704C22.9145 30.1621 23.8111 29.2102 23.8028 28.1116ZM39.6852 2.72654C38.5769 2.72654 37.6346 3.67838 37.6387 4.78536C37.6429 5.92169 38.5686 6.84418 39.706 6.84418C40.8019 6.84418 41.7235 5.90492 41.7235 4.78955C41.7235 3.6658 40.7936 2.72654 39.6852 2.73073V2.72654ZM23.8693 46.9638C23.861 45.8904 23.0681 44.9386 21.8601 44.8966C20.7476 44.8589 19.7928 45.8317 19.7887 46.9555C19.7887 48.0708 20.7144 49.0478 21.8269 49.0269C22.956 49.0059 23.8402 48.1505 23.8693 46.968V46.9638ZM12.9807 13.0039C11.8973 12.9871 10.9467 13.8425 10.9176 15.0333C10.8885 16.1822 11.8267 17.1047 12.9766 17.1089C14.0683 17.1089 14.9899 16.1864 14.994 15.0836C14.994 13.9431 14.0974 13.0122 12.9807 13.0039ZM35.6628 24.6104C36.8043 24.602 37.7176 23.6711 37.7093 22.539C37.6968 21.4278 36.767 20.4886 35.6752 20.4927C34.5544 20.4927 33.6204 21.4446 33.6328 22.5725C33.6453 23.6879 34.5751 24.6188 35.6669 24.6104H35.6628ZM43.1307 28.0152C43.1224 29.1222 44.0357 30.0782 45.1067 30.0866C46.269 30.095 47.1864 29.1976 47.1947 28.0403C47.203 26.904 46.2981 25.9773 45.1773 25.969C44.0647 25.9606 43.139 26.8872 43.1307 28.0152ZM58.4278 57.1992C57.3194 57.2076 56.3937 58.1511 56.3979 59.2706C56.3979 60.3776 57.3527 61.3253 58.4569 61.3211C59.5445 61.3211 60.4909 60.3566 60.4826 59.2664C60.4743 58.1259 59.5486 57.1908 58.4237 57.1992H58.4278ZM54.04 61.9794C55.0612 61.992 56.0865 61.1701 56.0782 59.9038C56.0699 58.7591 55.1484 57.8827 54.0608 57.8743C52.9192 57.8659 51.9852 58.7633 52.0018 59.9541C52.0184 61.2078 53.0354 61.9962 54.04 61.9836V61.9794ZM19.5271 34.0742C20.6438 34.0826 21.582 33.1559 21.5861 32.0364C21.5944 30.9084 20.6812 29.9692 19.5645 29.9608C18.4893 29.9566 17.5346 30.7784 17.5055 31.9944C17.4806 33.1224 18.4188 34.0658 19.5271 34.07V34.0742ZM27.3106 72.2483C28.4314 72.2525 29.3737 71.3174 29.353 70.1769C29.3322 69.0741 28.4895 68.16 27.3189 68.1391C26.2271 68.1181 25.2807 69.0615 25.2765 70.1685C25.2724 71.3174 26.1773 72.2441 27.3106 72.2483ZM2.67751 54.9727C3.81493 54.9811 4.73234 54.067 4.74064 52.9181C4.74894 51.8111 3.79417 50.8425 2.69826 50.8592C1.51933 50.8802 0.68494 51.8153 0.660033 52.8761C0.630975 54.025 1.55669 54.9643 2.67751 54.9727ZM19.6351 41.0138C18.5018 41.0054 17.5761 41.9112 17.5678 43.0349C17.5595 44.167 18.4561 45.0853 19.552 45.1189C20.648 45.1524 21.6276 44.2551 21.6442 43.0726C21.6608 41.9657 20.7393 41.0222 19.6351 41.0138ZM64.667 50.3896C65.8045 50.3896 66.7343 49.4629 66.7302 48.3308C66.726 47.2112 65.7795 46.2636 64.6795 46.272C63.567 46.2804 62.6454 47.2154 62.6413 48.3392C62.6371 49.442 63.567 50.3854 64.667 50.3854V50.3896ZM46.4683 21.4068C47.5725 21.4068 48.5148 20.455 48.5107 19.3438C48.5107 18.2369 47.5517 17.2808 46.4558 17.285C45.3558 17.2934 44.3885 18.2452 44.4176 19.3522C44.455 20.6269 45.4429 21.4027 46.4641 21.4068H46.4683ZM4.87763 16.2116C3.74851 16.2116 2.83525 17.1299 2.83525 18.2578C2.83525 19.4025 3.74851 20.3208 4.88593 20.325C5.97354 20.325 6.90755 19.3816 6.90755 18.2704C6.90755 17.1383 5.9943 16.2116 4.87763 16.2074V16.2116ZM26.4596 17.0879C26.4596 15.9516 25.5339 15.0207 24.4048 15.0249C23.3047 15.0249 22.3707 15.9852 22.379 17.1047C22.3873 18.2075 23.313 19.13 24.4214 19.1384C25.538 19.1468 26.4596 18.2201 26.4596 17.0879ZM2.6526 20.107C1.54423 20.0944 0.618522 21.0169 0.606068 22.1532C0.589463 23.2686 1.50272 24.2036 2.61109 24.212C3.75681 24.2204 4.67837 23.3147 4.68252 22.1742C4.68667 21.0462 3.77757 20.1196 2.65675 20.107H2.6526ZM19.3071 58.7129C19.3154 57.6018 18.4022 56.6583 17.3021 56.6499C16.1647 56.6415 15.2224 57.5431 15.2307 58.692C15.239 59.8619 16.119 60.7382 17.2564 60.7592C18.3524 60.7802 19.2947 59.8367 19.3071 58.7129ZM59.7894 43.1439C60.9102 43.1355 61.8525 42.2214 61.8318 41.0935C61.8069 39.8691 60.8604 39.0305 59.7686 39.0389C58.652 39.0473 57.747 39.9781 57.7512 41.1145C57.7512 42.2214 58.6852 43.1523 59.7894 43.1439ZM57.5644 39.7769C57.5644 38.6196 56.6677 37.7264 55.522 37.7139C54.4759 37.7013 53.4796 38.6196 53.5004 39.802C53.5211 40.8964 54.4219 41.8273 55.4971 41.8189C56.6553 41.8147 57.5602 40.9174 57.5602 39.7769H57.5644ZM7.23965 43.232C8.33971 43.2781 9.28203 42.3472 9.29033 41.2067C9.29863 40.0997 8.39783 39.1689 7.34343 39.1353C6.15204 39.0976 5.21387 40.0746 5.22218 41.1941C5.23048 42.3305 6.16034 43.2613 7.23965 43.232ZM20.511 57.7024C21.5986 57.7024 22.5699 56.8722 22.5741 55.6436C22.5741 54.4527 21.6567 53.6015 20.5608 53.589C19.4524 53.5764 18.5392 54.4108 18.4976 55.6184C18.4561 56.7296 19.4067 57.6856 20.5151 57.7024H20.511ZM58.3821 17.7001C59.4905 17.7085 60.4162 16.7735 60.4245 15.6455C60.4287 14.5218 59.5196 13.5909 58.3946 13.5783C57.2945 13.5657 56.3605 14.505 56.3522 15.6329C56.3398 16.7441 57.2738 17.6918 58.3863 17.7001H58.3821ZM4.00588 42.1963C2.87261 42.1921 1.9552 43.1104 1.9552 44.2593C1.9552 45.3495 2.86846 46.2762 3.93946 46.3013C5.10179 46.3265 6.00675 45.404 6.03166 44.3054C6.06071 43.1355 5.14746 42.2047 4.00588 42.2005V42.1963ZM57.5104 35.1644C57.527 34.0281 56.6262 33.0847 55.5137 33.0721C54.4012 33.0595 53.4713 33.9652 53.4464 35.0764C53.4215 36.1708 54.2393 37.1436 55.4265 37.1897C56.5598 37.2358 57.4938 36.3008 57.5104 35.1602V35.1644ZM46.8668 23.5495C46.8751 22.4258 45.9701 21.4949 44.8659 21.4865C43.7119 21.4781 42.8152 22.3796 42.8111 23.5579C42.8069 24.6817 43.6953 25.5832 44.8286 25.6C45.9328 25.6167 46.8585 24.6859 46.8668 23.5495ZM59.752 31.7512C58.6395 31.7429 57.7097 32.6695 57.6972 33.7933C57.6848 34.9087 58.6105 35.8437 59.7313 35.8521C60.8521 35.8605 61.7737 34.9464 61.782 33.8143C61.7903 32.6905 60.8729 31.7596 59.752 31.7512ZM40.5445 57.8953C40.5362 59.0274 41.437 59.9499 42.562 59.9667C43.6704 59.9835 44.6168 59.0358 44.6168 57.8995C44.6168 56.7757 43.6994 55.8616 42.5703 55.8574C41.4661 55.8491 40.5528 56.7715 40.5445 57.8953ZM49.4281 31.9357C49.4281 30.8036 48.5273 29.8769 47.4272 29.8727C46.2732 29.8685 45.3599 30.7868 45.3641 31.9441C45.3682 33.0595 46.2856 33.982 47.3898 33.982C48.519 33.982 49.4322 33.0637 49.4281 31.9357ZM47.751 58.5872C47.7593 59.7864 48.6435 60.6711 49.7851 60.6669C50.9972 60.6627 51.8108 59.7067 51.815 58.6081C51.815 57.4844 50.8893 56.5409 49.7809 56.5451C48.6808 56.5451 47.7551 57.4802 47.751 58.5913V58.5872ZM12.9932 62.0926C14.1223 62.0926 15.0812 61.145 15.0522 60.0254C15.0231 58.8136 14.1265 57.9666 13.0098 57.9708C11.7976 57.9791 10.984 58.9394 10.9799 60.0296C10.9799 61.1449 11.9014 62.0884 12.9932 62.0884V62.0926ZM15.8658 32.506C14.7533 32.506 13.8234 33.4411 13.8234 34.5606C13.8234 35.6886 14.7616 36.6278 15.8866 36.6236C17.0032 36.6236 17.8957 35.6844 17.8999 34.5187C17.8999 33.4369 16.9617 32.506 15.8658 32.506ZM31.3165 74.2107C32.4124 74.2274 33.3464 73.305 33.363 72.1896C33.3838 71.0658 32.4788 70.1266 31.3538 70.1014C30.2372 70.0763 29.2949 71.0071 29.2824 72.1477C29.2699 73.263 30.1874 74.1939 31.3165 74.2107ZM39.6894 18.5471C38.552 18.5513 37.6304 19.499 37.6387 20.6437C37.647 21.7381 38.6059 22.6732 39.6977 22.6606C40.8144 22.6438 41.7193 21.7255 41.7193 20.6102C41.7193 19.4822 40.7895 18.543 39.6852 18.5471H39.6894ZM37.7051 2.85653C37.7134 1.72439 36.8085 0.793518 35.6877 0.776745C34.5835 0.759973 33.6453 1.69504 33.6328 2.82298C33.6204 3.95093 34.5544 4.90277 35.6752 4.90696C36.767 4.90696 37.6968 3.97189 37.7051 2.86072V2.85653ZM4.40024 48.4272C4.39609 47.2909 3.47868 46.3684 2.36202 46.3726C1.25365 46.3726 0.319637 47.3287 0.33209 48.4398C0.344544 49.5971 1.2495 50.4819 2.34956 50.4903C3.49529 50.5028 4.4044 49.5636 4.39609 48.4272H4.40024ZM56.0201 14.962C56.0201 13.8299 55.0944 12.8948 53.9861 12.9032C52.8652 12.9116 51.9354 13.8467 51.9478 14.962C51.9561 16.09 52.8901 17.0376 53.9861 17.025C55.1027 17.0167 56.0243 16.0816 56.0201 14.962ZM22.0801 21.5788C20.9468 21.6039 20.046 22.5474 20.0709 23.6879C20.1 24.8284 21.0299 25.7132 22.1797 25.6838C23.2673 25.6587 24.1681 24.7068 24.1432 23.604C24.1183 22.4677 23.1843 21.5536 22.076 21.5788H22.0801ZM42.5579 68.7345C43.6994 68.7345 44.621 67.8078 44.6127 66.6757C44.6044 65.5561 43.687 64.6252 42.5911 64.6252C41.4661 64.6252 40.5445 65.5435 40.5445 66.6673C40.5445 67.8078 41.4536 68.7387 42.562 68.7345H42.5579ZM49.7228 18.3459C50.8312 18.3543 51.761 17.4192 51.7652 16.2913C51.7652 15.1675 50.8561 14.2492 49.7269 14.2282C48.6476 14.2115 47.697 15.1465 47.6929 16.2367C47.6846 17.4066 48.5812 18.3333 49.7228 18.3417V18.3459ZM44.4799 55.5388C44.4799 56.6583 45.4139 57.606 46.5181 57.6018C47.6348 57.5934 48.5563 56.6667 48.5605 55.5388C48.5605 54.4234 47.6348 53.4841 46.5222 53.4799C45.4139 53.4799 44.4882 54.4108 44.484 55.5388H44.4799ZM2.28729 28.7029C3.40811 28.7112 4.36703 27.7971 4.35458 26.6776C4.33798 25.4029 3.36245 24.6062 2.3122 24.5978C1.20384 24.5894 0.278125 25.5203 0.269823 26.6524C0.26152 27.7594 1.18308 28.6987 2.28729 28.707V28.7029ZM64.6172 28.6106C65.7048 28.6232 66.6181 27.7133 66.6637 26.6357C66.7094 25.5119 65.7962 24.5014 64.6463 24.5014C63.5213 24.5014 62.6163 25.3987 62.6039 26.5434C62.5914 27.6755 63.4922 28.598 64.6214 28.6106H64.6172ZM47.2528 46.8716C47.2487 45.7353 46.3396 44.8044 45.2271 44.8044C44.0979 44.8044 43.1888 45.7269 43.1888 46.88C43.1888 48.0205 44.1063 48.9262 45.2561 48.9178C46.3479 48.9095 47.257 47.9828 47.2528 46.8716ZM24.5376 68.7345C25.6501 68.7345 26.58 67.7952 26.5758 66.6799C26.5717 65.5519 25.6501 64.6252 24.5335 64.6252C23.4168 64.6252 22.5035 65.5477 22.5035 66.684C22.5035 67.8162 23.4126 68.7387 24.5376 68.7345ZM41.8314 54.4192C41.8522 53.3122 40.9555 52.3604 39.8721 52.3352C38.7097 52.3101 37.7799 53.2032 37.7633 54.3563C37.7466 55.4926 38.6433 56.4235 39.7641 56.4445C40.8725 56.4654 41.8106 55.5471 41.8314 54.4192ZM44.4965 17.0837C44.4965 15.9558 43.5791 15.0249 42.4624 15.0249C41.3499 15.0249 40.4408 15.9432 40.4242 17.0796C40.4076 18.1949 41.3291 19.1258 42.4624 19.1342C43.5749 19.1426 44.4923 18.2159 44.4965 17.0796V17.0837ZM31.3165 54.4905C32.4414 54.4947 33.3713 53.5638 33.3672 52.4233C33.3672 51.2995 32.4414 50.3854 31.2916 50.377C30.2289 50.3687 29.2866 51.3331 29.2824 52.4233C29.2824 53.5554 30.1957 54.4863 31.3123 54.4905H31.3165ZM51.1383 42.4856C52.2467 42.4814 53.1683 41.5631 53.1641 40.4687C53.1641 39.2863 52.2716 38.3764 51.1176 38.3806C49.9926 38.3806 49.1043 39.303 49.1043 40.4561C49.1043 41.5757 50.0217 42.4898 51.1383 42.4856ZM26.4596 8.32015C26.4554 7.17962 25.538 6.24037 24.438 6.24456C23.3213 6.24875 22.379 7.1922 22.379 8.29499C22.379 9.43132 23.313 10.3706 24.4338 10.3664C25.538 10.3664 26.4638 9.42713 26.4596 8.32015ZM9.42317 35.2357C9.43562 36.393 10.3572 37.2903 11.5154 37.2736C12.6154 37.261 13.5038 36.3259 13.4872 35.1896C13.4706 34.0533 12.5615 33.1601 11.424 33.1685C10.324 33.1769 9.41072 34.1245 9.42317 35.2315V35.2357ZM62.1141 58.7716C63.2307 58.7842 64.1523 57.8659 64.1647 56.7296C64.173 55.6059 63.2556 54.675 62.139 54.6666C61.0181 54.6582 60.1007 55.5723 60.0966 56.7086C60.0883 57.845 60.9849 58.7591 62.1182 58.7675L62.1141 58.7716ZM63.0024 32.7869C64.1232 32.7869 65.0323 31.8812 65.0365 30.7617C65.0448 29.6128 64.1274 28.6819 62.9983 28.6861C61.8733 28.6903 60.9642 29.6086 60.96 30.7407C60.96 31.8687 61.8733 32.7869 63.0024 32.7869ZM13.5453 39.8691C13.5536 38.7202 12.6735 37.7893 11.5071 37.7977C10.2742 37.8061 9.47298 38.8124 9.48959 39.8691C9.50619 41.0012 10.4195 41.9321 11.5278 41.9237C12.6362 41.9112 13.5494 40.9803 13.5453 39.8691ZM41.5367 62.2855C41.545 63.4428 42.425 64.3443 43.5541 64.3443C44.6874 64.3443 45.6131 63.4092 45.5965 62.2771C45.5841 61.1449 44.6625 60.2309 43.5458 60.235C42.4333 60.2392 41.5284 61.1659 41.5325 62.2855H41.5367ZM44.4923 8.31596C44.4923 7.18382 43.5832 6.24875 42.4707 6.24456C41.3623 6.23617 40.4242 7.17962 40.4242 8.29918C40.4242 9.43132 41.3333 10.3622 42.4541 10.3664C43.5749 10.3706 44.4923 9.4481 44.4965 8.31596H44.4923ZM7.21059 31.8393C6.11883 31.8561 5.15576 32.6779 5.16821 33.9149C5.18067 35.1183 6.06902 35.9276 7.19814 35.9569C8.3065 35.9863 9.24467 35.0177 9.24467 33.9065C9.24467 32.7786 8.32311 31.8435 7.21059 31.8393ZM4.92329 58.8639C6.03996 58.8681 6.95322 57.9666 6.96567 56.847C6.97397 55.7316 6.07317 54.7966 4.99801 54.7672C3.85229 54.7337 2.90167 55.6352 2.88922 56.7925C2.87676 58.0169 3.87304 58.8974 4.92329 58.8639ZM22.5077 57.8953C22.5118 59.04 23.4126 59.9625 24.5252 59.9625C25.6584 59.9625 26.5883 59.0149 26.5717 57.8701C26.5592 56.7548 25.6377 55.849 24.521 55.8532C23.4043 55.8574 22.4994 56.7715 22.5035 57.8953H22.5077ZM43.4628 10.6515C42.3295 10.6515 41.3997 11.5488 41.4121 12.6894C41.4246 13.876 42.342 14.7398 43.4462 14.7524C44.5546 14.765 45.4886 13.8299 45.4927 12.7061C45.4969 11.5698 44.5919 10.6557 43.4628 10.6515ZM6.57546 59.3335C6.56716 60.4615 7.48457 61.4091 8.58878 61.4175C9.693 61.4259 10.627 60.495 10.6478 59.3713C10.6685 58.2727 9.73866 57.3041 8.65105 57.2915C7.51778 57.2789 6.58791 58.193 6.57546 59.3335ZM25.1686 20.585C25.1686 21.7213 26.086 22.6606 27.1944 22.6564C28.3235 22.6522 29.2409 21.7255 29.2367 20.6018C29.2326 19.4696 28.3276 18.5471 27.2234 18.543C26.0984 18.543 25.1727 19.4654 25.1727 20.585H25.1686ZM25.2765 54.3731C25.2641 55.4884 26.1732 56.4235 27.2815 56.4487C28.3733 56.4696 29.3405 55.5346 29.353 54.4402C29.3696 53.2913 28.4688 52.352 27.3355 52.3352C26.2188 52.3185 25.289 53.2409 25.2765 54.3731ZM5.96524 30.8288C5.96524 29.705 5.06443 28.7867 3.95607 28.7825C2.8228 28.7825 1.91369 29.6924 1.90539 30.8455C1.89708 31.9735 2.8311 32.9002 3.96852 32.896C5.06858 32.896 5.96109 31.9693 5.96524 30.8288ZM37.8131 52.4275C37.7965 51.2492 36.8832 50.3561 35.7126 50.3728C34.625 50.3896 33.7283 51.354 33.7532 52.4778C33.7781 53.6183 34.7038 54.4989 35.8579 54.4863C36.9247 54.4737 37.8297 53.5219 37.8172 52.4275H37.8131ZM23.5745 60.2309C22.4952 60.2057 21.5363 61.1198 21.5114 62.189C21.4865 63.3799 22.3458 64.3024 23.5164 64.3401C24.604 64.3736 25.5463 63.4679 25.5754 62.3651C25.6045 61.1995 24.7203 60.2602 23.5745 60.235V60.2309ZM64.3432 54.8679C65.4558 54.8804 66.3815 53.9747 66.3939 52.8552C66.4064 51.723 65.518 50.8173 64.4138 50.7712C63.2764 50.7251 62.3258 51.6937 62.3175 52.809C62.3092 53.916 63.2515 54.8972 64.3432 54.8679ZM62.0767 16.1109C60.9434 16.1151 60.0385 17.0292 60.0385 18.1614C60.0385 19.3229 60.9476 20.216 62.1141 20.2118C63.1934 20.2076 64.0983 19.2851 64.1108 18.1907C64.1232 17.0502 63.1975 16.1109 62.0767 16.1151V16.1109ZM29.1911 2.83137C29.1579 3.89642 30.0213 4.87761 31.2085 4.89857C32.3252 4.91534 33.2468 3.9677 33.2426 2.84395C33.2426 1.69923 32.3335 0.772552 31.221 0.772552C30.096 0.772552 29.1869 1.69923 29.1911 2.83137ZM41.8314 70.2063C41.8397 69.0909 40.9264 68.1558 39.8222 68.1432C38.689 68.1307 37.7757 69.0448 37.7674 70.2063C37.7591 71.2881 38.6682 72.2315 39.7185 72.2567C40.9264 72.2902 41.8439 71.2755 41.8356 70.2063H41.8314ZM49.042 34.46C49.042 35.5963 49.947 36.5104 51.0761 36.5104C52.2094 36.5104 53.1102 35.5879 53.106 34.4348C53.106 33.3237 52.1844 32.4012 51.0761 32.4012C49.9636 32.4012 49.0462 33.3279 49.0462 34.46H49.042ZM37.8089 72.1477C37.8048 70.9988 36.8874 70.0889 35.7499 70.0972C34.6416 70.1056 33.7408 71.0323 33.7449 72.1561C33.7491 73.305 34.6623 74.2107 35.8039 74.2065C36.904 74.2023 37.8131 73.2672 37.8048 72.1477H37.8089ZM17.9455 40.5274C17.9414 39.3911 17.0364 38.4728 15.9322 38.4728C14.7865 38.4728 13.8857 39.3869 13.8898 40.54C13.894 41.668 14.7989 42.5821 15.9115 42.5862C17.0406 42.5862 17.9497 41.6638 17.9455 40.5274ZM33.2385 22.5474C33.2385 21.411 32.3211 20.4844 31.2002 20.4927C30.1043 20.5011 29.2077 21.4194 29.1786 22.5012C29.1496 23.6166 30.0711 24.602 31.1919 24.6104C32.3335 24.6188 33.2385 23.6963 33.2385 22.5432V22.5474ZM25.1644 4.78955C25.1769 5.93846 26.086 6.84837 27.2234 6.84418C28.3235 6.84418 29.2326 5.90911 29.2326 4.78536C29.2326 3.63645 28.2986 2.70138 27.1487 2.73073C26.0113 2.76428 25.1644 3.69515 25.1644 4.78955ZM19.2407 16.3919C19.2532 15.2639 18.344 14.3331 17.2191 14.3289C16.1066 14.3205 15.1975 15.2262 15.1809 16.35C15.1684 17.4905 16.0651 18.4297 17.1776 18.4381C18.3191 18.4465 19.2241 17.545 19.2366 16.3919H19.2407ZM20.4611 21.4949C21.5737 21.5159 22.4952 20.5976 22.516 19.4612C22.5326 18.371 21.6359 17.4192 20.5649 17.3982C19.4026 17.3731 18.4644 18.2578 18.4437 19.4067C18.4229 20.5473 19.3237 21.4781 20.4653 21.4991L20.4611 21.4949ZM23.4002 14.7482C24.4919 14.7733 25.4343 13.8634 25.455 12.7648C25.4799 11.6243 24.6165 10.6976 23.5413 10.6431C22.3582 10.5844 21.3952 11.5614 21.3869 12.6684C21.3827 13.7922 22.2669 14.7272 23.396 14.7482H23.4002ZM44.9033 49.3036C43.7659 49.2952 42.8609 50.1925 42.8443 51.3331C42.8318 52.4568 43.7409 53.3835 44.8742 53.3961C45.9826 53.4087 46.9083 52.4946 46.9207 51.3708C46.9332 50.2303 46.0365 49.3078 44.9033 49.2994V49.3036ZM63.0356 46.1965C64.173 46.2091 65.0697 45.3076 65.0821 44.1377C65.0946 43.0559 64.198 42.1376 63.1311 42.0956C61.9397 42.0495 61.0306 43.0768 61.0264 44.079C61.0223 45.2656 61.8816 46.1839 63.0356 46.2007V46.1965ZM55.4556 21.6333C55.4514 22.4971 56.1696 23.235 57.0164 23.2392C57.8425 23.2476 58.5606 22.5348 58.5648 21.7046C58.569 20.8701 57.8176 20.1154 56.979 20.1112C56.1488 20.1112 55.4597 20.7988 55.4556 21.6333ZM29.8304 8.52142C29.8304 7.6786 29.1496 6.98255 28.3276 6.98255C27.4268 6.98255 26.7253 7.68699 26.7253 8.58012C26.7253 9.39359 27.4185 10.0854 28.2363 10.0938C29.0914 10.1022 29.8304 9.37262 29.8304 8.52142ZM55.9247 28.0697C55.9205 28.8496 56.539 29.5834 57.4398 29.6044C58.2618 29.6253 59.0173 28.8622 59.0256 28.0362C59.0339 27.1975 58.3572 26.4847 57.5395 26.4763C56.647 26.4679 55.933 27.1724 55.9247 28.0655V28.0697ZM11.5361 53.3374C11.5361 52.4652 10.8097 51.7398 9.94207 51.7482C9.13674 51.7566 8.43934 52.461 8.43519 53.2703C8.43104 54.1173 9.1658 54.8637 10.0126 54.8637C10.8636 54.8637 11.5403 54.1886 11.5403 53.3332L11.5361 53.3374ZM55.522 53.2284C55.522 54.0796 56.1986 54.7756 57.0372 54.7756C57.8757 54.7756 58.6271 54.0209 58.6188 53.1864C58.6105 52.3394 57.9089 51.6308 57.0579 51.6517C56.2484 51.6727 55.5178 52.3436 55.522 53.2284ZM28.7427 15.2136C28.7469 16.0774 29.4692 16.8028 30.316 16.8028C31.138 16.8028 31.8395 16.0984 31.8395 15.2765C31.8395 14.4044 31.0965 13.6622 30.2496 13.6748C29.4111 13.6915 28.7386 14.3792 28.7469 15.2136H28.7427ZM29.6269 64.772C30.453 64.772 31.1421 64.0759 31.1504 63.2247C31.1587 62.3568 30.4406 61.6146 29.5937 61.6188C28.7718 61.6188 28.0869 62.3274 28.0827 63.1828C28.0786 64.0424 28.7843 64.7678 29.6269 64.772ZM8.24423 48.6746C7.47212 48.6453 6.7 49.2952 6.70415 50.2303C6.70415 51.1947 7.43475 51.8111 8.21933 51.8195C9.06617 51.8279 9.76772 51.1276 9.78017 50.2722C9.79262 49.4084 9.09107 48.6788 8.24839 48.6746H8.24423ZM38.6724 68.0007C39.5234 68.0091 40.2581 67.3088 40.2664 66.487C40.2747 65.6022 39.623 64.9146 38.7637 64.9062C37.8836 64.8978 37.1613 65.5938 37.1572 66.4492C37.1572 67.3046 37.8255 67.9923 38.6682 67.9965L38.6724 68.0007ZM36.6922 58.1888C35.862 58.1846 35.1646 58.8723 35.1605 59.7025C35.1605 60.5621 35.8703 61.3043 36.713 61.3253C37.5349 61.3462 38.2489 60.6334 38.2572 59.7906C38.2614 58.931 37.5432 58.193 36.6922 58.1888ZM30.4489 58.1888C29.5896 58.172 28.8631 58.8932 28.8507 59.7738C28.8382 60.5956 29.5232 61.2959 30.3576 61.3169C31.1795 61.3378 31.9267 60.5998 31.9392 59.7528C31.9516 58.8932 31.2957 58.2014 30.4489 58.1846V58.1888ZM12.823 56.587C12.8686 55.7778 12.2003 55.0104 11.2787 54.9769C10.4485 54.9475 9.74281 55.6562 9.72205 56.4948C9.70545 57.325 10.4527 58.1007 11.2953 58.0966C12.0384 58.0924 12.8354 57.5095 12.823 56.587ZM55.1027 21.1259C55.1027 20.2957 54.4053 19.5786 53.5585 19.5996C52.6535 19.6206 52.0018 20.2831 51.9893 21.1595C51.9769 22.0023 52.6784 22.6941 53.5211 22.6983C54.3887 22.6983 55.1027 21.9939 55.1027 21.1259ZM33.2426 9.02879C33.2509 8.16081 32.5743 7.46056 31.7233 7.45637C30.8931 7.45218 30.15 8.18597 30.1375 9.0204C30.1251 9.84644 30.8266 10.5635 31.661 10.5802C32.5037 10.5928 33.2385 9.87579 33.2468 9.02879H33.2426ZM39.8554 15.7461C40.7189 15.7461 41.4204 15.0291 41.4204 14.157C41.4204 13.289 40.7563 12.6139 39.9053 12.6139C39.0584 12.6139 38.3527 13.3309 38.3486 14.1905C38.3486 15.0543 39.0169 15.7461 39.8554 15.742V15.7461ZM32.126 18.7568C32.1384 17.8888 31.4327 17.155 30.5817 17.1425C29.7473 17.1341 29.0582 17.8008 29.0333 18.6436C29.0126 19.4864 29.7473 20.2831 30.5776 20.2747C31.4784 20.2663 32.1052 19.6038 32.126 18.761V18.7568ZM26.9951 15.7545C27.8295 15.7545 28.5642 15.0291 28.5518 14.1779C28.5393 13.3561 27.9291 12.6055 27.02 12.6097C26.1773 12.6139 25.4841 13.2638 25.4758 14.1947C25.4675 15.1172 26.2271 15.7629 26.9909 15.7545H26.9951ZM36.4722 57.845C37.29 57.8282 37.9791 57.2118 37.9667 56.3019C37.9542 55.3836 37.2983 54.7211 36.4141 54.7169C35.5548 54.7127 34.8823 55.3585 34.8865 56.2726C34.8865 57.1405 35.6046 57.8492 36.4722 57.845ZM58.7641 26.3086C59.5777 26.3296 60.3083 25.6712 60.3 24.7529C60.2917 23.8347 59.6483 23.1763 58.7599 23.168C57.9255 23.1596 57.2323 23.8221 57.2323 24.7404C57.2323 25.6964 57.9836 26.3254 58.7599 26.3128L58.7641 26.3086ZM37.3896 13.3603C38.2406 13.3603 38.9214 12.6684 38.9214 11.8004C38.9214 10.9325 38.224 10.2196 37.3772 10.2196C36.5387 10.2196 35.8579 10.9115 35.862 11.7669C35.862 12.6474 36.547 13.3603 37.3938 13.3603H37.3896ZM60.3415 50.1884C60.3955 49.3791 59.7437 48.6369 58.9384 48.5824C58.1165 48.5279 57.361 49.1778 57.3028 49.9913C57.2364 50.9054 57.855 51.6685 58.7225 51.7314C59.503 51.7859 60.3415 51.1444 60.3415 50.1925V50.1884ZM62.0601 53.1571C62.0601 52.3101 61.3918 51.6266 60.5574 51.6224C59.6939 51.6182 58.9592 52.3478 58.9592 53.2116C58.9592 54.0376 59.6524 54.7295 60.4826 54.7337C61.3502 54.7337 62.0601 54.0209 62.0601 53.1571ZM61.9854 21.7297C62.002 20.8534 61.3502 20.1405 60.4577 20.1321C59.5777 20.1238 58.9467 20.8114 58.9301 21.7004C58.9135 22.5558 59.6192 23.277 60.4494 23.2854C61.2921 23.2937 61.9812 22.5977 61.9854 21.7297ZM32.018 58.2224C32.0305 59.0861 32.7196 59.7738 33.5664 59.7654C34.4174 59.7612 35.1439 59.0316 35.1314 58.193C35.119 57.3376 34.3966 56.6583 33.5291 56.6709C32.6781 56.6835 32.0056 57.3711 32.018 58.2182V58.2224ZM13.4249 22.7906C14.2883 22.7864 14.9525 22.1071 14.9442 21.2307C14.9359 20.3711 14.2344 19.6919 13.3585 19.7003C12.5241 19.7086 11.8433 20.3837 11.8475 21.2014C11.8516 22.1029 12.5407 22.7948 13.4249 22.7906ZM14.4502 44.4144C14.4502 45.2908 15.1559 45.9952 16.0235 45.991C16.8579 45.991 17.5263 45.3034 17.518 44.4564C17.5097 43.5758 16.8081 42.8546 15.9571 42.8588C15.1144 42.863 14.4461 43.5549 14.4502 44.4144ZM9.46053 48.5027C10.3074 48.5195 11.0504 47.8067 11.067 46.9722C11.0836 46.1127 10.4195 45.4082 9.58506 45.3956C8.73822 45.3789 7.98271 46.0917 7.97026 46.9177C7.95365 47.7941 8.60954 48.4901 9.46468 48.5069L9.46053 48.5027ZM14.3631 29.1809C14.3714 28.3213 13.6823 27.6336 12.8022 27.6252C11.9844 27.621 11.258 28.3339 11.2497 29.1557C11.2414 29.9985 11.918 30.7155 12.7607 30.7197C13.8193 30.7239 14.3921 29.8685 14.3631 29.1809ZM9.90055 23.3273C10.7682 23.3273 11.4822 22.6061 11.4822 21.7255C11.4822 20.8995 10.7889 20.2118 9.95452 20.2076C9.12843 20.2076 8.38953 20.9414 8.37707 21.78C8.36462 22.6145 9.06617 23.3231 9.90055 23.3273ZM7.58835 27.5833C7.59665 26.7279 6.91586 26.0109 6.09807 26.0025C5.22218 25.9983 4.53308 26.6902 4.52893 27.5749C4.52478 28.4303 5.21803 29.1431 6.05656 29.1473C6.8868 29.1473 7.58005 28.4387 7.58835 27.5791V27.5833ZM50.25 18.6142C49.3409 18.631 48.6601 19.3354 48.6808 20.237C48.7016 21.0462 49.4032 21.7046 50.2375 21.6962C51.1176 21.6836 51.8108 20.975 51.7984 20.107C51.7859 19.2767 51.0844 18.6017 50.2541 18.6142H50.25ZM10.2949 42.0244C9.46053 42.0244 8.77558 42.7078 8.77558 43.5381C8.77558 44.4396 9.45638 45.1147 10.3613 45.1063C11.1874 45.1021 11.8848 44.4061 11.8848 43.58C11.8848 42.7162 11.1791 42.0202 10.2991 42.0202L10.2949 42.0244ZM55.7586 54.8888C54.8786 54.9098 54.2144 55.5346 54.2102 56.4109C54.2102 57.3502 54.9159 57.9582 55.7462 57.9833C56.6137 58.0085 57.3111 57.3334 57.3278 56.478C57.3444 55.6226 56.6304 54.9014 55.7586 54.8888ZM36.7379 9.02459C36.7504 8.19855 36.0405 7.47314 35.1937 7.45637C34.3717 7.4396 33.6494 8.14404 33.6328 8.97847C33.6162 9.82128 34.3385 10.5718 35.2061 10.576C36.0571 10.576 36.767 9.89676 36.7379 9.02459ZM11.1957 17.0041C10.3406 17.0041 9.65563 17.7043 9.66809 18.5639C9.68054 19.4025 10.3945 20.1028 11.2455 20.0944C12.0924 20.086 12.7607 19.478 12.7898 18.5681C12.8188 17.7085 12.0716 17.0041 11.1999 17.0041H11.1957ZM38.5644 6.96997C37.7342 6.98255 37.0576 7.69538 37.07 8.54239C37.0825 9.40617 37.7965 10.1232 38.6308 10.1148C39.4901 10.1064 40.1502 9.3852 40.1336 8.4753C40.1211 7.64925 39.3988 6.95739 38.5644 6.96997ZM14.3714 30.6694C14.3838 31.55 15.0729 32.2083 15.9737 32.1957C16.8123 32.1831 17.4931 31.4661 17.4806 30.6065C17.4723 29.7889 16.7583 29.1054 15.9322 29.1096C15.0646 29.1138 14.3589 29.8224 14.3672 30.6694H14.3714ZM39.9758 62.3777C40.8268 62.3777 41.5159 61.6691 41.5201 60.7927C41.5201 59.9415 40.8268 59.2287 39.9841 59.2287C39.1664 59.2287 38.444 59.9793 38.4482 60.8347C38.4482 61.6775 39.1456 62.3819 39.9758 62.3777ZM55.6797 29.0802C55.6631 28.2081 54.9408 27.5036 54.0815 27.5288C53.243 27.5539 52.558 28.25 52.5705 29.0677C52.583 29.9608 53.3011 30.661 54.2061 30.6233C55.0197 30.5898 55.6922 29.9272 55.6839 29.0802H55.6797ZM11.9014 53.8364C11.889 54.6792 12.5781 55.3878 13.4166 55.3962C14.2759 55.4046 15.0107 54.6876 15.0148 53.8322C15.0231 52.9935 14.3382 52.3101 13.483 52.2933C12.632 52.2765 11.9097 52.981 11.9014 53.8364ZM51.0221 32.116C51.8773 32.158 52.5497 31.3864 52.5497 30.6149C52.5497 29.7176 51.844 28.9838 50.9681 28.9838C50.1711 28.9838 49.4696 29.6924 49.4696 30.5143C49.4696 31.5039 50.2957 32.1538 51.018 32.116H51.0221ZM6.67094 24.7571C6.60867 25.5958 7.2272 26.3379 8.04913 26.4092C8.88767 26.4805 9.64733 25.8222 9.70545 24.9794C9.76772 24.0737 9.13259 23.3105 8.25669 23.2644C7.38909 23.2183 6.65018 23.9604 6.66679 24.7571H6.67094ZM35.2767 67.5185C36.1277 67.5311 36.85 66.814 36.8666 65.9461C36.8791 65.141 36.1734 64.424 35.3473 64.4072C34.517 64.3904 33.7906 65.1074 33.7574 65.9335C33.72 66.8392 34.4838 67.5352 35.2767 67.5185ZM17.298 47.945C17.298 47.0645 16.5964 46.3307 15.7537 46.3349C14.9069 46.3349 14.2261 47.0226 14.2261 47.8738C14.2261 48.7417 14.9442 49.4755 15.7911 49.4797C16.613 49.4797 17.298 48.7879 17.3021 47.9492L17.298 47.945ZM55.194 43.45C55.194 44.3138 55.9164 45.0518 56.7673 45.035C57.6432 45.0182 58.2742 44.3641 58.2908 43.4878C58.3074 42.6408 57.5395 41.8986 56.6968 41.9153C55.825 41.9363 55.1899 42.6114 55.194 43.4458V43.45ZM16.0443 49.8655C15.1767 49.8655 14.4918 50.5825 14.4918 51.4882C14.4918 52.2891 15.1892 53.0019 15.9779 53.0061C16.8413 53.0061 17.5719 52.2807 17.5719 51.4086C17.5719 50.5615 16.8828 49.8613 16.0484 49.8613L16.0443 49.8655ZM31.8312 67.5227C32.6698 67.5227 33.3672 66.8182 33.3672 65.9838C33.3672 65.1494 32.6241 64.4114 31.7897 64.4114C30.947 64.4114 30.2496 65.1032 30.2455 65.9461C30.2372 66.7889 30.9802 67.5269 31.8312 67.5227ZM11.8018 31.5542C11.8018 30.6652 11.0961 29.9566 10.2243 29.9608C9.38581 29.965 8.69671 30.6694 8.70501 31.508C8.71332 32.3425 9.45223 33.0637 10.2908 33.0679C11.1335 33.0679 11.8059 32.397 11.8059 31.5542H11.8018ZM49.4322 23.5537C49.4239 24.4007 50.1089 25.1219 50.9308 25.1303C51.7776 25.1429 52.5082 24.4091 52.5124 23.5453C52.5124 22.6983 51.8316 21.9855 51.0014 21.9813C50.167 21.9771 49.4405 22.7025 49.4322 23.5537ZM27.074 62.3651C27.9374 62.3735 28.6473 61.6649 28.6514 60.7927C28.6597 59.9457 27.9872 59.2455 27.1653 59.2329C26.3102 59.2245 25.5754 59.9583 25.5712 60.8305C25.5712 61.6775 26.2313 62.3568 27.0698 62.3651H27.074ZM55.742 45.794C55.7379 44.9721 55.0446 44.2677 54.2476 44.2635C53.326 44.2635 52.6162 44.9512 52.6286 45.8359C52.6369 46.6619 53.3343 47.358 54.1563 47.358C55.028 47.358 55.7503 46.6452 55.742 45.7898V45.794ZM50.2583 53.1529C49.4405 53.1529 48.7805 53.8531 48.768 54.7043C48.7556 55.4465 49.3077 56.2809 50.3413 56.3019C51.1342 56.3145 51.8357 55.5849 51.8316 54.7463C51.8316 53.8825 51.1093 53.1529 50.2583 53.1529ZM60.8978 25.9228C60.026 25.9312 59.3162 26.665 59.3328 27.5372C59.3452 28.3758 60.026 29.0425 60.8687 29.0383C61.7197 29.0383 62.4379 28.2919 62.4254 27.4323C62.4129 26.5853 61.7322 25.9102 60.9019 25.9186L60.8978 25.9228ZM27.9872 11.8256C27.9872 12.6852 28.6639 13.3645 29.5107 13.3603C30.3326 13.3603 31.0342 12.6432 31.0342 11.8046C31.0342 10.8821 30.37 10.2112 29.4734 10.2154C28.6514 10.2196 27.9872 10.9408 27.9914 11.8214L27.9872 11.8256ZM35.0608 15.2723C35.065 16.1319 35.7458 16.8154 36.5885 16.807C37.4229 16.7986 38.1535 16.0522 38.1452 15.222C38.1327 14.3624 37.4727 13.6831 36.6466 13.6789C35.7748 13.6748 35.0567 14.4002 35.0608 15.2723ZM55.1525 53.7735C55.1608 52.9181 54.4593 52.2052 53.6041 52.1969C52.7573 52.1885 52.0599 52.8636 52.0475 53.7064C52.035 54.5702 52.7449 55.2956 53.6083 55.3039C54.4427 55.3123 55.1442 54.6163 55.1525 53.7777V53.7735ZM14.1763 27.1975C14.1763 28.0739 14.8529 28.7532 15.7081 28.749C16.5466 28.7406 17.2481 28.011 17.2398 27.1514C17.2315 26.296 16.5715 25.6167 15.7413 25.6125C14.8861 25.6125 14.1721 26.3337 14.1763 27.2017V27.1975ZM26.8623 66.3989C26.8332 67.2459 27.4932 67.9839 28.3193 68.0175C29.1828 68.0552 29.8926 67.3843 29.9258 66.5121C29.959 65.6567 29.2616 64.881 28.4065 64.8726C27.5348 64.8642 26.8706 65.5687 26.8664 66.3989H26.8623ZM59.3992 47.4209C59.4033 48.2973 60.0924 48.9849 60.9559 48.9807C61.782 48.9765 62.4545 48.2637 62.4586 47.3832C62.4628 46.5445 61.7488 45.8275 60.9102 45.8275C60.0966 45.8275 59.395 46.5655 59.3992 47.4209ZM33.4294 4.47088C32.5784 4.47088 31.8769 5.17532 31.881 6.01813C31.8852 6.86095 32.6075 7.56958 33.4626 7.57378C34.3012 7.57797 34.9986 6.87772 34.9903 6.0349C34.982 5.17951 34.2721 4.46668 33.4253 4.46668L33.4294 4.47088ZM16.7666 53.2829C15.8907 53.2913 15.1892 53.9957 15.1933 54.8637C15.1975 55.6897 15.8949 56.3774 16.7251 56.3732C17.6134 56.3732 18.315 55.6646 18.3067 54.7798C18.2984 53.958 17.5968 53.2745 16.7624 53.2829H16.7666ZM48.1703 23.9772C47.3151 23.9772 46.6094 24.6984 46.6094 25.5706C46.6094 26.3966 47.311 27.1137 48.1163 27.1137C48.9839 27.1137 49.6771 26.4092 49.6771 25.5287C49.6771 24.6565 49.0212 23.9814 48.1744 23.9772H48.1703ZM17.4931 23.6669C17.4931 22.799 16.7915 22.0735 15.9571 22.0777C15.1144 22.0819 14.4461 22.7654 14.4336 23.625C14.4212 24.4888 15.1393 25.2226 15.9903 25.2226C16.8372 25.2226 17.4889 24.5433 17.4889 23.6669H17.4931ZM33.4336 18.3123C34.3012 18.3249 34.9861 17.654 34.9944 16.7902C35.0027 15.9265 34.3178 15.2346 33.4419 15.2262C32.6282 15.2178 31.8976 15.9181 31.881 16.7231C31.8644 17.5995 32.5494 18.2998 33.4336 18.3081V18.3123ZM30.6938 57.8324C31.5531 57.824 32.2505 57.1279 32.2422 56.2851C32.2339 55.4172 31.5448 54.7337 30.673 54.7337C29.8345 54.7337 29.1205 55.4507 29.1288 56.2893C29.1371 57.1321 29.8511 57.8366 30.6938 57.8282V57.8324ZM37.8712 18.7274C37.8712 17.8721 37.1613 17.1508 36.3145 17.1466C35.4677 17.1466 34.737 17.8679 34.7537 18.7191C34.7703 19.5912 35.4261 20.237 36.3145 20.2621C37.1406 20.2873 37.8712 19.5367 37.8712 18.7274ZM58.2286 31.4493C58.2327 30.573 57.5602 29.8895 56.6843 29.8811C55.825 29.8727 55.1193 30.5562 55.1152 31.4032C55.1069 32.2502 55.8167 32.9589 56.6802 32.9631C57.527 32.9714 58.2244 32.2922 58.2286 31.4493ZM52.8237 47.7899C52.8237 46.901 52.1637 46.2426 51.2712 46.2468C50.4451 46.251 49.7602 46.9722 49.7602 47.836C49.7602 48.6956 50.4368 49.3791 51.2795 49.3749C52.1222 49.3749 52.8196 48.6537 52.8237 47.7899ZM11.3203 45.8862C11.3037 46.729 11.9927 47.4461 12.8437 47.4628C13.6864 47.4796 14.417 46.7919 14.4212 45.9407C14.4295 45.0811 13.811 44.3767 12.8562 44.3599C11.9803 44.3432 11.312 45.0434 11.3203 45.8862ZM11.0048 28.1494C11.0006 27.2856 10.2949 26.5811 9.44808 26.577C8.59293 26.5728 7.92459 27.2395 7.91214 28.1032C7.89969 28.9586 8.6635 29.705 9.48959 29.6966C10.3406 29.6882 11.0089 29.0048 11.0048 28.1494ZM49.702 27.0466C49.6688 27.8097 50.3206 28.6525 51.2463 28.6567C52.0931 28.6567 52.7781 27.9649 52.7739 27.0969C52.7739 26.2499 52.0392 25.5119 51.2089 25.5203C50.3704 25.5287 49.6979 26.208 49.702 27.0466ZM20.3242 25.6293C20.3325 24.7823 19.6683 24.0862 18.8463 24.0779C17.9621 24.0695 17.2813 24.7571 17.2689 25.667C17.2564 26.5099 17.9289 27.2101 18.755 27.2143C19.606 27.2227 20.3159 26.5057 20.3242 25.6293ZM52.6203 44.3557C52.6286 43.4752 51.9561 42.7959 51.0761 42.7875C50.2292 42.7791 49.5111 43.4836 49.5069 44.318C49.5069 45.1566 50.1836 45.8653 50.9972 45.8694C51.9022 45.8778 52.612 45.2153 52.6203 44.3557ZM6.13128 49.0604C7.01549 49.0143 7.70043 48.2763 7.66307 47.4125C7.62571 46.5697 6.91171 45.9072 6.08977 45.9533C5.20972 45.9994 4.53308 46.729 4.57459 47.5886C4.61611 48.444 5.3135 49.1065 6.13128 49.0646V49.0604ZM57.5602 48.4063C58.4029 48.4063 59.0961 47.7102 59.0878 46.8716C59.0837 46.0288 58.3323 45.2866 57.4979 45.2908C56.6511 45.2992 55.9869 45.9869 55.9911 46.8464C55.9994 47.706 56.7051 48.4063 57.5602 48.4063ZM4.9482 21.822C4.90254 22.5977 5.58333 23.365 6.46338 23.3608C7.32682 23.3608 8.04913 22.6312 8.04498 21.7549C8.04498 20.9414 7.34343 20.2495 6.5298 20.2579C5.63729 20.2663 4.9482 20.9498 4.9482 21.822ZM33.5747 70.504C34.3053 70.5459 35.1107 69.896 35.1107 68.9819C35.1107 68.1181 34.3883 67.4095 33.5207 67.4137C32.6615 67.4178 32.0014 68.0887 32.0097 68.9525C32.0139 69.8163 32.7113 70.504 33.5747 70.504ZM18.8256 51.0102C19.6932 51.0018 20.3906 50.2848 20.3823 49.4168C20.374 48.5614 19.6683 47.8528 18.838 47.8612C18.0286 47.8696 17.3063 48.6243 17.3063 49.4546C17.3063 50.3058 17.9995 51.0186 18.8214 51.0102H18.8256ZM5.02292 53.2745C5.01462 54.1676 5.71617 54.8385 6.56301 54.8553C7.37664 54.8721 8.06989 54.1341 8.06989 53.2913C8.06989 52.3855 7.40154 51.7104 6.51734 51.7104C5.68296 51.7104 5.02292 52.4023 5.02292 53.2745ZM52.5497 51.3666C52.6079 50.5406 51.8607 49.7439 50.9889 49.7648C50.1545 49.7816 49.4986 50.4651 49.4986 51.3373C49.4986 52.1885 50.2292 52.9223 51.0595 52.9097C51.8897 52.9013 52.558 52.2094 52.5497 51.3666ZM55.7254 20.0022C56.4934 20.0189 57.224 19.4361 57.2696 18.5304C57.3111 17.6582 56.5805 16.9076 55.7212 16.8993C54.8578 16.8909 54.1687 17.5702 54.1687 18.4297C54.1687 19.2809 54.8786 19.998 55.7254 20.0022ZM35.9616 63.2038C35.9575 64.0634 36.6217 64.7594 37.4602 64.772C38.3195 64.7804 39.0086 64.0801 39.0128 63.1828C39.0128 62.3316 38.3361 61.623 37.51 61.6188C36.6715 61.6188 35.9699 62.3358 35.9658 63.2038H35.9616ZM46.6758 49.3581C46.6136 50.0458 47.257 50.9221 48.1827 50.9096C49.0254 50.9012 49.7352 50.1967 49.7352 49.3288C49.7352 48.4608 49.0752 47.7815 48.2242 47.7773C47.3732 47.7773 46.68 48.4818 46.6758 49.3539V49.3581ZM16.7168 18.6981C15.8907 18.6562 15.2099 19.3061 15.1684 20.1783C15.1269 21.0253 15.816 21.7926 16.6504 21.8345C17.4474 21.8723 18.1697 21.2056 18.2278 20.4173C18.2942 19.4822 17.5761 18.6855 16.7168 18.7023V18.6981ZM23.4417 39.0682C22.7111 39.0682 22.1216 39.6553 22.1258 40.3765C22.1258 41.0851 22.7277 41.6805 23.45 41.6889C24.1557 41.6973 24.7659 41.0851 24.7659 40.3681C24.7659 39.6511 24.1681 39.064 23.4417 39.064V39.0682ZM30.9719 45.991C31.7482 45.991 32.3045 45.4334 32.3045 44.666C32.3045 43.9784 31.7067 43.3913 31.001 43.3871C30.2704 43.3871 29.6477 43.9951 29.6602 44.708C29.6726 45.4795 30.3783 46.0581 30.9719 45.991ZM36.0281 28.988C35.2808 28.988 34.6872 29.5666 34.6872 30.3004C34.6872 31.0049 35.3058 31.6087 36.0198 31.6045C36.7296 31.6045 37.3398 30.9881 37.3357 30.2795C37.3357 29.575 36.7338 28.9838 36.0239 28.9838L36.0281 28.988ZM36.0073 28.7112C36.7421 28.7112 37.3357 28.1326 37.3398 27.4156C37.3398 26.7027 36.7379 26.0989 36.0239 26.0989C35.285 26.0989 34.6872 26.6944 34.6914 27.424C34.6955 28.1242 35.2975 28.7112 36.0115 28.7112H36.0073ZM30.9802 28.7112C31.7191 28.7112 32.3003 28.141 32.3003 27.4156C32.3003 26.6902 31.715 26.1031 30.9885 26.1031C30.2538 26.1031 29.656 26.7027 29.656 27.4323C29.656 28.1284 30.2662 28.7154 30.9761 28.7154L30.9802 28.7112ZM36.0115 46.0036C36.713 46.012 37.3274 45.4208 37.3398 44.7247C37.3564 44.0077 36.7462 43.3955 36.0156 43.3913C35.3016 43.3871 34.6872 43.9909 34.6872 44.6954C34.6872 45.4082 35.2808 45.9994 36.0073 46.0036H36.0115ZM33.5041 24.6523C32.7984 24.6439 32.1841 25.2477 32.1758 25.9606C32.1675 26.644 32.786 27.273 33.4751 27.2772C34.2181 27.2814 34.8201 26.6986 34.8201 25.969C34.8201 25.2561 34.2264 24.6607 33.5041 24.6523ZM25.9739 28.988C25.2392 28.988 24.6372 29.5666 24.6331 30.2753C24.6289 30.9797 25.2392 31.6003 25.9449 31.6045C26.6589 31.6087 27.2691 31.0216 27.2732 30.3256C27.2732 29.5708 26.7087 28.988 25.9739 28.9838V28.988ZM41.051 46.0036C41.7774 45.9952 42.3752 45.3998 42.3711 44.687C42.3669 43.9825 41.7525 43.3829 41.0344 43.3871C40.3121 43.3871 39.7143 43.9951 39.7268 44.708C39.7392 45.4376 40.3287 46.012 41.0551 46.0036H41.051ZM32.3003 47.5886C32.3003 46.859 31.7274 46.2762 30.9968 46.2678C30.287 46.2594 29.6602 46.8716 29.656 47.5677C29.656 48.2931 30.2413 48.8759 30.9719 48.8801C31.715 48.8801 32.2962 48.3182 32.3003 47.5886ZM41.0427 28.988C40.3079 28.988 39.7268 29.5624 39.7226 30.2879C39.7185 30.9965 40.3245 31.6045 41.0385 31.6045C41.7484 31.6045 42.3669 30.9965 42.3669 30.292C42.3669 29.5834 41.765 28.988 41.0427 28.988ZM43.5417 39.0682C42.8235 39.0682 42.2341 39.6595 42.2299 40.3891C42.2258 41.0893 42.8443 41.6931 43.5624 41.6931C44.264 41.6931 44.8742 41.0851 44.8742 40.3891C44.8742 39.6553 44.2806 39.0682 43.5417 39.0724V39.0682ZM38.5395 30.4304C37.8048 30.422 37.207 31.0007 37.1987 31.7429C37.1904 32.418 37.7965 33.0301 38.4897 33.0385C39.2411 33.0511 39.8471 32.4641 39.8513 31.7219C39.8513 31.0216 39.266 30.4388 38.5395 30.4304ZM30.9802 28.988C30.2621 28.988 29.6519 29.5876 29.6602 30.2962C29.6643 30.9965 30.287 31.6087 30.9927 31.6045C31.6901 31.6003 32.3003 31.0049 32.3045 30.3298C32.3086 29.5708 31.7357 28.988 30.9802 28.9838V28.988ZM23.45 33.0385C24.1723 33.0385 24.7576 32.4599 24.7701 31.7303C24.7784 31.03 24.1765 30.4304 23.4666 30.4304C22.7028 30.4304 22.1299 30.9965 22.1299 31.7596C22.1299 32.4515 22.7318 33.0343 23.4541 33.0385H23.45ZM27.2732 44.6954C27.2732 43.9742 26.6838 43.3871 25.9573 43.3913C25.2392 43.3913 24.6331 43.9951 24.6331 44.7038C24.6331 45.4166 25.235 46.0036 25.9656 46.0078C26.6921 46.0078 27.2732 45.425 27.2732 44.6954ZM23.4292 35.9234C24.1681 35.9234 24.7701 35.3364 24.7701 34.6109C24.7701 33.8981 24.1598 33.2985 23.4417 33.3069C22.7152 33.3111 22.1258 33.9023 22.1258 34.6235C22.1258 35.3364 22.7152 35.9234 23.4251 35.9276L23.4292 35.9234ZM35.999 48.8801C36.7338 48.8843 37.3357 48.3098 37.3398 47.5928C37.344 46.8842 36.7545 46.2804 36.053 46.272C35.2975 46.2678 34.6914 46.8381 34.6914 47.5635C34.6914 48.2847 35.2725 48.8717 35.999 48.8801ZM28.4854 30.4304C27.7506 30.4178 27.1528 31.0049 27.1487 31.7429C27.1487 32.4347 27.7423 33.0301 28.4605 33.0427C29.1703 33.0553 29.7847 32.4599 29.793 31.7429C29.8013 31.0258 29.2201 30.4388 28.4854 30.4262V30.4304ZM28.4729 39.0724C27.7257 39.0766 27.1404 39.6636 27.1487 40.3974C27.157 41.0977 27.7631 41.6889 28.4688 41.6889C29.216 41.6889 29.8013 41.0935 29.7888 40.3345C29.7805 39.7224 29.2201 39.0473 28.4729 39.0724ZM43.5417 33.0385C44.2765 33.0385 44.8701 32.4641 44.8701 31.7471C44.8701 31.0175 44.2931 30.4346 43.5624 30.4304C42.8277 30.4304 42.2299 31.0091 42.2299 31.7219C42.2299 32.4473 42.8194 33.0385 43.5417 33.0385ZM38.5312 44.5612C39.2535 44.5612 39.8596 43.9532 39.8554 43.2529C39.8471 42.5401 39.2411 41.9447 38.5271 41.9447C37.8214 41.9447 37.1987 42.5611 37.2028 43.2613C37.207 43.9742 37.8131 44.5654 38.5354 44.5612H38.5312ZM34.8201 49.0227C34.8201 48.3056 34.2264 47.7186 33.5 47.7102C32.8109 47.7018 32.1799 48.314 32.1716 49.0017C32.1633 49.7187 32.7818 50.3435 33.5 50.3393C34.2181 50.3393 34.8201 49.7397 34.8201 49.0227ZM28.4854 44.5612C29.2367 44.5402 29.8221 43.9448 29.8013 43.2194C29.7805 42.4898 29.1703 41.9405 28.4107 41.9657C27.7133 41.9866 27.1404 42.5862 27.157 43.2655C27.1736 44.0035 27.7714 44.5822 28.4895 44.5612H28.4854ZM27.2774 41.8021C27.3189 41.2319 26.717 40.4729 25.9199 40.519C25.2142 40.561 24.6289 41.127 24.6331 41.8399C24.6414 42.5443 25.2475 43.1272 25.9781 43.123C26.7087 43.1188 27.2815 42.5359 27.2732 41.8021H27.2774ZM27.2774 38.9215C27.3189 38.3512 26.717 37.5923 25.9199 37.6384C25.2142 37.6803 24.6289 38.2464 24.6331 38.9592C24.6414 39.6636 25.2475 40.2465 25.9781 40.2423C26.7087 40.2381 27.2815 39.6553 27.2732 38.9215H27.2774ZM38.5312 35.9276C39.2328 35.9318 39.843 35.3405 39.8554 34.6403C39.8679 33.9191 39.2577 33.3027 38.5354 33.3069C37.8255 33.3111 37.1987 33.8981 37.207 34.59C37.2111 35.2399 37.7217 35.9234 38.5354 35.9276H38.5312ZM33.5124 33.0343C34.214 33.0427 34.8159 32.4683 34.8284 31.7722C34.8408 31.051 34.2514 30.443 33.5332 30.4346C32.786 30.4262 32.1799 31.0091 32.1799 31.7387C32.1799 32.4515 32.7652 33.026 33.5124 33.0343ZM28.4978 33.3237C27.7465 33.2692 27.157 33.9484 27.157 34.5984C27.157 35.3196 27.7423 35.9108 28.4605 35.9276C29.245 35.9444 29.793 35.2567 29.7971 34.6361C29.8013 33.8981 29.2284 33.3279 28.4937 33.3237H28.4978ZM25.9822 34.7577C25.2309 34.7032 24.6414 35.3825 24.6414 36.0324C24.6414 36.7536 25.2267 37.3449 25.9449 37.3616C26.7294 37.3784 27.2774 36.6907 27.2815 36.0702C27.2857 35.3322 26.7128 34.7619 25.9781 34.7577H25.9822ZM25.949 34.4768C26.7045 34.4768 27.2815 33.9191 27.2815 33.1895C27.2815 32.4725 26.7128 31.9022 26.0196 31.877C25.1727 31.8477 24.6455 32.5563 24.6414 33.1769C24.6372 33.8855 25.2392 34.4726 25.949 34.4768ZM43.5791 35.9276C44.3014 35.9234 44.8867 35.3238 44.8784 34.6026C44.8701 33.8939 44.2806 33.3153 43.5624 33.3153C42.8194 33.3153 42.2341 33.9065 42.2382 34.6655C42.2382 35.3531 42.8567 35.936 43.5749 35.9318L43.5791 35.9276ZM38.5437 41.6763C39.2867 41.6679 39.8596 41.0977 39.8513 40.3723C39.843 39.6385 39.2494 39.0724 38.498 39.0808C37.8048 39.0892 37.1862 39.7056 37.207 40.3974C37.2277 41.1228 37.8131 41.7099 38.5437 41.6763ZM33.5083 41.9782C32.7528 41.9153 32.1799 42.6114 32.1841 43.2655C32.1841 43.9784 32.7901 44.5696 33.5166 44.5654C34.2472 44.5612 34.8284 43.9825 34.8284 43.2488C34.8284 42.5737 34.2472 41.9279 33.5124 41.9782H33.5083ZM41.0717 34.4768C41.7816 34.4726 42.3752 33.8813 42.3752 33.1685C42.3752 32.5941 41.8729 31.8519 41.0136 31.8728C40.3121 31.8896 39.7268 32.4767 39.7268 33.1979C39.7268 33.9065 40.3328 34.481 41.0759 34.4768H41.0717ZM41.0427 40.5274C40.3204 40.5232 39.7309 41.0977 39.7268 41.8105C39.7268 42.5275 40.3038 43.1188 41.0178 43.123C41.7567 43.1272 42.3835 42.5359 42.3752 41.8231C42.3669 41.1774 41.8231 40.4855 41.0427 40.5274ZM33.5 30.1579C34.2431 30.1579 34.8491 29.5666 34.8284 28.8328C34.8118 28.2248 34.3427 27.5414 33.4792 27.5539C32.7735 27.5665 32.1841 28.1452 32.1799 28.8412C32.1799 29.5624 32.7735 30.1579 33.4958 30.1579H33.5ZM33.5083 47.4377C34.2348 47.4377 34.8242 46.8674 34.8284 46.1546C34.8284 45.4292 34.2223 44.8254 33.4917 44.8338C32.786 44.8379 32.1758 45.4334 32.1841 46.1378C32.1924 46.8087 32.7196 47.4544 33.5083 47.4377ZM23.4417 44.5612C24.2802 44.5822 24.7784 43.8526 24.7742 43.2404C24.7742 42.5317 24.1723 41.9615 23.4458 41.9657C22.6986 41.9699 22.1258 42.5359 22.1299 43.2697C22.1341 43.9909 22.7152 44.5654 23.4375 44.5612H23.4417ZM43.5708 41.9657C42.8277 41.9573 42.2465 42.5192 42.2341 43.2529C42.2216 43.9616 42.8194 44.557 43.5583 44.5654C44.2806 44.5738 44.8742 43.9826 44.8742 43.2571C44.8742 42.5359 44.3055 41.974 43.5708 41.9657ZM33.5124 35.915C34.2389 35.915 34.8118 35.3238 34.8076 34.5942C34.8035 33.8939 34.2181 33.3237 33.5124 33.3237C32.7818 33.3237 32.1882 33.9149 32.1965 34.6319C32.2048 35.3364 32.8026 35.9192 33.5124 35.915ZM34.8076 40.3932C34.8076 39.672 34.214 39.0724 33.5 39.0766C32.7984 39.0766 32.1924 39.6846 32.1965 40.3807C32.1965 41.0977 32.786 41.6763 33.5 41.6763C34.2306 41.6763 34.8076 41.1103 34.8076 40.3932ZM34.8076 37.4916C34.8076 36.7704 34.214 36.1708 33.5 36.175C32.7984 36.175 32.1924 36.783 32.1965 37.479C32.1965 38.1961 32.786 38.7747 33.5 38.7747C34.2306 38.7747 34.8076 38.2086 34.8076 37.4916ZM32.3128 38.955C32.3128 38.2338 31.7191 37.6342 31.0051 37.6384C30.3036 37.6384 29.6975 38.2464 29.7017 38.9424C29.7017 39.6595 30.2911 40.2381 31.0051 40.2381C31.7357 40.2381 32.3128 39.672 32.3128 38.955ZM42.3586 38.955C42.3586 38.2338 41.765 37.6342 41.051 37.6384C40.3494 37.6384 39.7434 38.2464 39.7475 38.9424C39.7475 39.6595 40.337 40.2381 41.051 40.2381C41.7816 40.2381 42.3586 39.672 42.3586 38.955ZM32.3128 36.0743C32.3128 35.3531 31.7191 34.7535 31.0051 34.7577C30.3036 34.7577 29.6975 35.3657 29.7017 36.0618C29.7017 36.7788 30.2911 37.3574 31.0051 37.3574C31.7357 37.3574 32.3128 36.7914 32.3128 36.0743ZM42.3586 36.0743C42.3586 35.3531 41.765 34.7535 41.051 34.7577C40.3494 34.7577 39.7434 35.3657 39.7475 36.0618C39.7475 36.7788 40.337 37.3574 41.051 37.3574C41.7816 37.3574 42.3586 36.7914 42.3586 36.0743ZM37.3315 36.0743C37.3315 35.3531 36.7379 34.7535 36.0239 34.7577C35.3224 34.7577 34.7163 35.3657 34.7204 36.0618C34.7204 36.7788 35.3099 37.3574 36.0239 37.3574C36.7545 37.3574 37.3315 36.7914 37.3315 36.0743ZM37.3315 38.955C37.3315 38.2338 36.7379 37.6342 36.0239 37.6384C35.3224 37.6384 34.7163 38.2464 34.7204 38.9424C34.7204 39.6595 35.3099 40.2381 36.0239 40.2381C36.7545 40.2381 37.3315 39.672 37.3315 38.955ZM58.4071 44.6325C58.3988 45.2866 58.9218 45.8317 59.5652 45.8401C60.1921 45.8443 60.6985 45.3453 60.7068 44.708C60.7193 44.0538 60.2004 43.5171 59.5486 43.5045C58.9218 43.492 58.4154 43.9951 58.4071 44.6325ZM59.8973 55.6688C59.8973 55.0482 59.3826 54.5031 58.7641 54.5198C58.1289 54.5366 57.5934 54.9937 57.5768 55.7065C57.5644 56.3271 58.0916 56.8554 58.7101 56.8512C59.3618 56.847 59.8932 56.3187 59.8932 55.6688H59.8973ZM28.0703 59.0526C28.7386 59.0526 29.245 58.541 29.245 57.8743C29.245 57.2286 28.7427 56.7212 28.0993 56.7254C27.4849 56.7254 26.9328 57.2957 26.937 57.9121C26.937 58.5452 27.4476 59.0568 28.0703 59.0526ZM13.2713 30.9797C12.6196 30.9755 12.0882 31.4913 12.0841 32.1286C12.0799 32.7492 12.6071 33.2817 13.2173 33.2817C13.8857 33.2817 14.4129 32.7702 14.4129 32.116C14.4129 31.4913 13.9023 30.9797 13.2713 30.9755V30.9797ZM18.7177 21.3943C18.0908 21.3901 17.5802 21.8974 17.5761 22.5264C17.5719 23.2057 18.0825 23.7298 18.7509 23.7382C19.3652 23.7424 19.8634 23.2267 19.8675 22.5809C19.8675 21.9352 19.3528 21.4027 18.7177 21.3985V21.3943ZM27.9582 15.939C27.3313 15.9348 26.8249 16.438 26.8208 17.0796C26.8166 17.7127 27.3479 18.262 27.9789 18.2704C28.6141 18.2788 29.1164 17.784 29.1205 17.1425C29.1288 16.4799 28.6099 15.9474 27.9582 15.939ZM59.4615 31.3906C60.0841 31.4032 60.6321 30.8707 60.6487 30.2375C60.6653 29.6211 60.1672 29.0844 59.5652 29.0718C58.8969 29.0593 58.3448 29.575 58.3282 30.225C58.3157 30.8623 58.8139 31.3781 59.4615 31.3906ZM14.2593 17.2389C13.6159 17.2389 13.1011 17.7546 13.1011 18.392C13.1011 19.021 13.6532 19.5535 14.2925 19.5451C14.9359 19.5409 15.4382 19.0252 15.4341 18.3794C15.4258 17.7505 14.8986 17.2347 14.2593 17.2389ZM8.60124 30.3382C8.60124 29.6882 8.06573 29.1515 7.4223 29.1557C6.79962 29.1557 6.30148 29.6631 6.30148 30.2795C6.30148 30.9587 6.82453 31.4871 7.48042 31.4871C8.10725 31.4871 8.60124 30.9755 8.60124 30.334V30.3382ZM53.6789 30.8833C53.0313 30.8833 52.5248 31.3864 52.5248 32.0322C52.5248 32.6695 53.0562 33.1937 53.7038 33.1895C54.3264 33.1895 54.837 32.6779 54.8453 32.0448C54.8536 31.399 54.3348 30.8833 53.6747 30.8791L53.6789 30.8833ZM8.30235 54.6163C7.67967 54.6205 7.15247 55.1446 7.15247 55.7526C7.15247 56.3942 7.70873 56.9476 8.36047 56.9435C8.97484 56.9435 9.49374 56.4067 9.48129 55.7862C9.46883 55.1488 8.92503 54.6121 8.30235 54.6163ZM35.4261 68.6716C35.4261 69.3047 35.9326 69.8163 36.5594 69.8163C37.2236 69.8163 37.7425 69.2964 37.7425 68.638C37.7425 68.0091 37.2361 67.5101 36.5968 67.5059C35.9616 67.5059 35.4261 68.0384 35.4261 68.6758V68.6716ZM18.2942 27.5036C17.6425 27.5036 17.1153 28.0362 17.1195 28.6903C17.1195 29.3444 17.6259 29.8602 18.2569 29.8518C18.8879 29.8434 19.4109 29.3067 19.4151 28.6651C19.4192 28.0403 18.9003 27.5036 18.2942 27.5036ZM48.1869 23.6376C48.8303 23.6418 49.3658 23.1092 49.3741 22.4551C49.3824 21.8345 48.8676 21.302 48.2533 21.2894C47.6223 21.2811 47.0868 21.8094 47.0743 22.4509C47.066 23.1051 47.56 23.6292 48.191 23.6376H48.1869ZM26.7294 62.6922C26.0984 62.6922 25.592 63.1954 25.5837 63.8495C25.5754 64.4952 26.0984 65.0403 26.7253 65.0445C27.3438 65.0487 27.8668 64.5246 27.8751 63.883C27.8835 63.2415 27.3563 62.6964 26.7253 62.6922H26.7294ZM53.7577 41.7141C53.0603 41.7267 52.5747 42.2214 52.583 42.9133C52.5913 43.5087 53.1309 44.0245 53.737 44.0245C54.3555 44.0245 54.9118 43.4794 54.9076 42.8672C54.9076 42.2131 54.3929 41.7015 53.7577 41.7141ZM61.6782 23.3483C61.0431 23.3566 60.5491 23.8892 60.5615 24.5559C60.574 25.1848 61.0929 25.7006 61.7072 25.6964C62.3341 25.6964 62.8613 25.1597 62.8613 24.5349C62.8613 23.8808 62.3258 23.3441 61.6823 23.3524L61.6782 23.3483ZM48.2574 51.2534C47.6223 51.2576 47.1159 51.7733 47.12 52.4191C47.12 53.0606 47.6555 53.6015 48.2782 53.6015C48.9092 53.6015 49.4156 53.0816 49.4198 52.4359C49.4198 51.7985 48.8801 51.2534 48.2574 51.2576V51.2534ZM37.7591 17.1257C37.7508 17.7463 38.2572 18.2662 38.8633 18.2704C39.5109 18.2704 40.0713 17.7211 40.0713 17.0796C40.0713 16.4716 39.5566 15.9474 38.9546 15.939C38.2905 15.9306 37.7716 16.4464 37.7633 17.1257H37.7591ZM36.4805 7.48153C37.1074 7.49411 37.6263 6.99093 37.6346 6.36197C37.6429 5.71204 37.1198 5.17951 36.4598 5.17112C35.8454 5.16274 35.3265 5.67849 35.3141 6.31165C35.3016 6.94062 35.833 7.46895 36.4847 7.48572L36.4805 7.48153ZM31.5655 6.31165C31.5655 5.69107 31.0508 5.17532 30.424 5.16693C29.7888 5.15855 29.2533 5.69526 29.2492 6.33681C29.2492 6.98674 29.7307 7.48153 30.37 7.48572C31.03 7.48572 31.5614 6.96578 31.5614 6.31165H31.5655ZM8.2982 18.1488C7.65477 18.1404 7.11511 18.6729 7.10266 19.3229C7.09021 19.9225 7.61741 20.4634 8.21518 20.4718C8.86691 20.4844 9.41487 19.9602 9.42317 19.3187C9.43562 18.6687 8.94163 18.1572 8.2982 18.153V18.1488ZM7.47212 45.9156C8.1363 45.9156 8.65105 45.4082 8.65935 44.7415C8.66765 44.1209 8.16121 43.601 7.55099 43.5968C6.8868 43.5926 6.35545 44.1167 6.35545 44.7876C6.35545 45.4166 6.84529 45.9114 7.47212 45.9156ZM40.254 9.94708C39.623 9.94708 39.1041 10.4922 39.1124 11.1463C39.1207 11.7711 39.6645 12.3078 40.283 12.2994C40.9015 12.291 41.4038 11.7711 41.4038 11.1379C41.4038 10.4838 40.8849 9.94708 40.254 9.94708ZM39.0418 59.0484C39.6769 59.0484 40.1834 58.541 40.1792 57.9163C40.1792 57.2537 39.6396 56.717 38.9837 56.7212C38.3735 56.7212 37.8753 57.237 37.8753 57.8617C37.8753 58.5285 38.3901 59.0526 39.0418 59.0484ZM18.2859 45.2447C17.6716 45.2447 17.1817 45.752 17.1776 46.381C17.1776 47.0435 17.6923 47.576 18.3399 47.5802C18.9709 47.5802 19.4773 47.0645 19.4815 46.4187C19.4815 45.7772 18.9418 45.2405 18.2901 45.2447H18.2859ZM52.7365 57.7527C53.3758 57.7527 53.8947 57.237 53.8906 56.608C53.8906 55.979 53.3509 55.4507 52.7116 55.4465C52.0724 55.4465 51.5659 55.9497 51.5618 56.5954C51.5576 57.2328 52.0807 57.7527 52.7324 57.7569L52.7365 57.7527ZM6.42602 50.4777C6.42602 49.8068 5.92373 49.291 5.28444 49.2952C4.64931 49.3036 4.13872 49.8319 4.13872 50.4861C4.13872 51.1108 4.67422 51.6476 5.29275 51.6434C5.93203 51.6434 6.42602 51.1276 6.42187 50.4777H6.42602ZM39.2411 63.8789C39.2411 64.5372 39.7351 65.0445 40.3743 65.0445C40.9929 65.0445 41.5284 64.4827 41.5201 63.8411C41.5118 63.208 41.0012 62.6922 40.3826 62.6922C39.7392 62.6922 39.2411 63.208 39.2411 63.8789ZM58.6686 18.0566C58.0293 18.0482 57.5063 18.5471 57.5063 19.1677C57.5063 19.8135 58.0418 20.367 58.6769 20.3753C59.2871 20.3837 59.8226 19.8638 59.8392 19.2474C59.8558 18.61 59.3203 18.0649 58.6686 18.0566ZM30.5361 69.8163C31.1712 69.8163 31.6901 69.2922 31.6818 68.6632C31.6735 68.03 31.138 67.5017 30.4987 67.5017C29.8677 67.5017 29.3447 68.03 29.353 68.659C29.3613 69.2922 29.8968 69.8163 30.5361 69.8163ZM48.6975 29.7386C49.3284 29.7386 49.8307 29.2312 49.8266 28.598C49.8183 27.9355 49.2994 27.4072 48.6559 27.4114C48.0208 27.4114 47.5144 27.9355 47.5227 28.5771C47.531 29.2186 48.0582 29.7386 48.6975 29.7386ZM27.7631 11.1002C27.7631 10.4502 27.2566 9.94288 26.6132 9.94708C25.9905 9.94708 25.4758 10.5006 25.4841 11.1547C25.4924 11.7837 26.0113 12.3078 26.6256 12.2994C27.2649 12.291 27.7631 11.7669 27.7631 11.1002ZM4.09721 24.6146C4.09721 25.2687 4.5995 25.7886 5.22218 25.7886C5.85731 25.7886 6.38035 25.2561 6.3762 24.6104C6.3762 23.9688 5.849 23.4279 5.24293 23.4279C4.6078 23.4321 4.09306 23.9646 4.09721 24.6104V24.6146ZM14.4668 42.9678C14.4668 42.3263 13.9521 41.8063 13.3004 41.7979C12.6569 41.7896 12.1422 42.3137 12.1422 42.9762C12.1422 43.5968 12.6777 44.1041 13.3253 44.1041C13.9563 44.1041 14.4627 43.601 14.4668 42.9678ZM18.8048 51.3498C18.1614 51.3498 17.6217 51.8866 17.6176 52.5323C17.6176 53.1529 18.1323 53.6854 18.7426 53.698C19.3777 53.7064 19.9256 53.1571 19.9256 52.5113C19.9256 51.8782 19.4151 51.354 18.8048 51.3498ZM32.292 19.7464C32.292 20.3879 32.7984 20.9163 33.4253 20.9204C34.0687 20.9246 34.6084 20.3963 34.6084 19.759C34.6084 19.13 34.0978 18.6142 33.4751 18.61C32.7943 18.61 32.2962 19.0839 32.292 19.7422V19.7464ZM49.8764 46.3055C49.8847 45.6724 49.3949 45.1524 48.7888 45.1482C48.1163 45.1399 47.5849 45.6598 47.5849 46.3307C47.5849 46.9429 48.0789 47.4712 48.6684 47.4796C49.3409 47.4922 49.8722 46.9806 49.8805 46.3097L49.8764 46.3055ZM15.4839 56.6751C15.4756 56.0335 14.9567 55.5178 14.3299 55.5262C13.7072 55.5346 13.1634 56.0923 13.1675 56.7128C13.1675 57.3502 13.6823 57.8492 14.3299 57.845C14.9816 57.8408 15.4922 57.3208 15.4839 56.6751ZM51.5161 18.3081C51.5286 18.9706 52.0308 19.4612 52.6909 19.4487C53.3343 19.4403 53.8408 18.8952 53.8242 18.2285C53.8117 17.6079 53.2928 17.1257 52.6494 17.1341C52.0184 17.1466 51.5036 17.675 51.5161 18.3039V18.3081ZM61.7612 49.2072C61.1261 49.203 60.6279 49.7103 60.6238 50.3645C60.6155 51.0102 61.1136 51.5385 61.7405 51.5469C62.3756 51.5553 62.8945 51.0354 62.9069 50.3812C62.9194 49.7271 62.4171 49.2114 61.7612 49.2072ZM34.708 55.2117C34.6955 54.5534 34.1808 54.0586 33.5249 54.0754C32.8856 54.0921 32.3709 54.6247 32.3875 55.2494C32.4082 55.8826 32.9437 56.3942 33.5706 56.3774C34.2223 56.3606 34.7163 55.8532 34.708 55.2117Z" fill="black"/>
</svg>